<svg width="362" height="362" viewBox="0 0 362 362" fill="none" xmlns="http://www.w3.org/2000/svg">
<path d="M281.575 136.627L351.874 131.789C356.67 131.459 358.402 138.027 354.057 140.103L290.495 170.546C286.96 172.272 287.271 177.391 291.009 178.646L357.781 201.075C362.361 202.59 361.453 209.331 356.622 209.589L286.262 213.386C282.347 213.601 280.667 218.485 283.623 221.062L336.758 267.339C340.407 270.515 336.976 276.388 332.432 274.765L265.994 251.37C262.273 250.06 258.88 253.905 260.605 257.44L291.986 320.542C294.099 324.87 288.73 328.965 285.152 325.755L232.706 278.693C229.77 276.062 225.153 278.315 225.421 282.249L230.26 352.548C230.591 357.343 224.023 359.074 221.946 354.729L191.503 291.169C189.777 287.634 184.659 287.944 183.402 291.684L160.974 358.454C159.458 363.035 152.719 362.126 152.459 357.296L148.663 286.936C148.449 283.021 143.565 281.341 140.988 284.295L94.7102 337.43C91.5347 341.08 85.662 337.648 87.2838 333.105L110.679 266.666C111.989 262.947 108.144 259.552 104.61 261.278L41.5066 292.66C37.1789 294.773 33.0844 289.402 36.295 285.825L83.3558 233.379C85.9867 230.443 83.7336 225.827 79.7998 226.094L9.50166 230.932C4.70662 231.264 2.97393 224.696 7.31915 222.619L70.8807 192.175C74.4152 190.45 74.1047 185.332 70.3661 184.075L3.59416 161.647C-0.985246 160.131 -0.0768989 153.391 4.75334 153.132L75.1139 149.336C79.0286 149.122 80.7087 144.238 77.7531 141.661L24.6183 95.3831C20.9698 92.2069 24.3997 86.3348 28.9434 87.9577L95.382 111.352C99.1034 112.662 102.496 108.817 100.771 105.283L69.3894 42.1796C67.2769 37.8517 72.6472 33.7567 76.2237 36.9682L128.669 84.0288C131.605 86.6598 136.222 84.4061 135.954 80.4729L131.063 10.1564C130.732 5.36052 137.299 3.62881 139.376 7.97439L169.82 71.5353C171.545 75.0698 176.663 74.7605 177.92 71.0207L200.384 4.23201C201.9 -0.348476 208.641 0.559281 208.899 5.39023L212.696 75.7503C212.909 79.6657 217.793 81.3457 220.37 78.3913L266.648 25.2551C269.824 21.6065 275.696 25.0365 274.074 29.5801L250.678 96.0191C249.37 99.7398 253.213 103.133 256.748 101.408L319.852 70.0262C324.179 67.9137 328.275 73.284 325.063 76.8605L278.002 129.306C275.372 132.243 277.625 136.859 281.558 136.591L281.575 136.627Z" stroke="#E8E8E8" stroke-width="0.668651" stroke-miterlimit="10"/>
</svg>
