<svg width="23" height="22" viewBox="0 0 23 22" fill="none" xmlns="http://www.w3.org/2000/svg">
<path d="M21.5387 7.53555C22.1026 7.71413 22.4245 8.01573 22.4991 8.44568C22.5736 8.87563 22.4138 9.33409 22.0254 9.81566C21.6088 10.3244 21.1065 10.6645 20.5356 10.8306C18.3364 11.4358 15.8147 11.5002 12.9707 11.0126C14.9961 9.39679 17.2342 8.25273 19.691 7.56386C20.3572 7.37182 20.9694 7.36229 21.5387 7.53555ZM13.8826 1.14493C14.3798 0.776937 14.8831 0.653869 15.3924 0.775817C15.7905 0.895364 16.0893 1.2409 16.3055 1.81847C16.482 2.42301 16.4809 3.01281 16.2912 3.57632C15.7191 5.40042 14.3163 7.57451 12.094 10.0987C11.7681 7.57714 11.9918 5.11703 12.7593 2.72391C12.9787 2.06641 13.3569 1.54013 13.8826 1.14493ZM19.4908 17.9916C19.529 18.5654 19.3749 19.0185 19.0172 19.3615C18.6936 19.6719 18.2296 19.7791 17.6306 19.6888C17.0589 19.6268 16.5798 19.3887 16.1931 18.9857C14.7228 17.4529 13.544 15.2808 12.6623 12.4639C14.9819 13.2911 17.0349 14.6245 18.8102 16.4752C19.2241 16.9067 19.4584 17.4123 19.4911 17.9805M3.53419 5.15254C3.49836 4.46747 3.68767 3.92616 4.10208 3.52863C4.45406 3.191 4.99068 3.0686 5.70097 3.16133C6.38278 3.2812 6.94969 3.57674 7.3908 4.03659C8.71953 5.42177 9.84316 7.57042 10.7566 10.4659C7.72488 9.37355 5.60184 8.19441 4.38201 6.92276C3.881 6.40047 3.60381 5.81602 3.53419 5.15254ZM9.93168 21.5037C9.46165 21.9001 8.99694 22.0407 8.54323 21.92C8.14513 21.8004 7.85721 21.4662 7.67378 20.9227C7.49152 20.3236 7.49266 19.7338 7.6881 19.1648C8.51491 16.5949 9.71063 14.4778 11.2809 12.808C11.7089 15.5041 11.6045 17.8498 10.9731 19.8507C10.7524 20.5639 10.4015 21.1185 9.93144 21.5149M1.91781 15.4562C1.38359 15.1948 1.06347 14.8042 0.968512 14.2848C0.865609 13.8821 1.02543 13.4237 1.44212 12.9149C1.85772 12.4618 2.35384 12.1494 2.93021 11.9889C5.12934 11.3837 7.61768 11.3186 10.4061 11.805C7.99599 13.7244 5.72738 14.9958 3.58957 15.5967C3.00744 15.7626 2.45202 15.7177 1.91781 15.4562Z" fill="#FFED00"/>
</svg>
