<svg width="24" height="25" viewBox="0 0 24 25" fill="none" xmlns="http://www.w3.org/2000/svg">
<g clip-path="url(#clip0_1_396)">
<path d="M16.5 0.44873H7.5C3.3585 0.44873 0 3.80723 0 7.94873V16.9487C0 21.0902 3.3585 24.4487 7.5 24.4487H16.5C20.6415 24.4487 24 21.0902 24 16.9487V7.94873C24 3.80723 20.6415 0.44873 16.5 0.44873ZM21.75 16.9487C21.75 19.8437 19.395 22.1987 16.5 22.1987H7.5C4.605 22.1987 2.25 19.8437 2.25 16.9487V7.94873C2.25 5.05373 4.605 2.69873 7.5 2.69873H16.5C19.395 2.69873 21.75 5.05373 21.75 7.94873V16.9487Z" fill="#E8E8E8"/>
<path d="M12 6.44873C8.6865 6.44873 6 9.13523 6 12.4487C6 15.7622 8.6865 18.4487 12 18.4487C15.3135 18.4487 18 15.7622 18 12.4487C18 9.13523 15.3135 6.44873 12 6.44873ZM12 16.1987C9.933 16.1987 8.25 14.5157 8.25 12.4487C8.25 10.3802 9.933 8.69873 12 8.69873C14.067 8.69873 15.75 10.3802 15.75 12.4487C15.75 14.5157 14.067 16.1987 12 16.1987Z" fill="#E8E8E8"/>
<path d="M18.4501 6.79822C18.8918 6.79822 19.2497 6.44026 19.2497 5.99872C19.2497 5.55716 18.8918 5.19922 18.4501 5.19922C18.0086 5.19922 17.6506 5.55716 17.6506 5.99872C17.6506 6.44026 18.0086 6.79822 18.4501 6.79822Z" fill="#E8E8E8"/>
</g>
<defs>
<clipPath id="clip0_1_396">
<rect width="24" height="24" fill="white" transform="translate(0 0.44873)"/>
</clipPath>
</defs>
</svg>
