<svg width="24" height="25" viewBox="0 0 24 25" fill="none" xmlns="http://www.w3.org/2000/svg">
<g clip-path="url(#clip0_1_407)">
<path d="M5.367 7.94873H0V24.4487H5.367V7.94873Z" fill="#E8E8E8"/>
<path d="M19.986 8.14223C19.929 8.12423 19.875 8.10473 19.815 8.08823C19.743 8.07173 19.671 8.05823 19.5975 8.04623C19.3125 7.98923 19.0005 7.94873 18.6345 7.94873C15.5055 7.94873 13.521 10.2242 12.867 11.1032V7.94873H7.5V24.4487H12.867V15.4487C12.867 15.4487 16.923 9.79973 18.6345 13.9487C18.6345 17.6522 18.6345 24.4487 18.6345 24.4487H24V13.3142C24 10.8212 22.2915 8.74373 19.986 8.14223Z" fill="#E8E8E8"/>
<path d="M2.625 5.69873C4.07475 5.69873 5.25 4.52348 5.25 3.07373C5.25 1.62398 4.07475 0.44873 2.625 0.44873C1.17525 0.44873 0 1.62398 0 3.07373C0 4.52348 1.17525 5.69873 2.625 5.69873Z" fill="#E8E8E8"/>
</g>
<defs>
<clipPath id="clip0_1_407">
<rect width="24" height="24" fill="white" transform="translate(0 0.44873)"/>
</clipPath>
</defs>
</svg>
